<?xml version="1.0" encoding="utf-8"?>
<!-- Generator: Adobe Illustrator 24.0.2, SVG Export Plug-In . SVG Version: 6.00 Build 0)  -->
<svg version="1.1" id="Layer_1" xmlns="http://www.w3.org/2000/svg" xmlns:xlink="http://www.w3.org/1999/xlink" x="0px" y="0px"
	 viewBox="0 0 768 1024" style="enable-background:new 0 0 768 1024;" xml:space="preserve">
<style type="text/css">
	.st0{fill:#F20505;}
</style>
<path class="st0" d="M672,128H416c0,0,0-24.1,0-32c0-17.7-14.3-32-32-32s-32,14.3-32,32s0,32,0,32H96c-35.3,0-64,28.7-64,64v64
	c0,35.3,28.7,64,64,64v576c0,35.3,28.7,64,64,64h448c35.3,0,64-28.7,64-64V320c35.3,0,64-28.7,64-64v-64
	C736,156.7,707.3,128,672,128z M608,864c0,17.7-14.3,32-32,32H192c-17.7,0-32-14.3-32-32V320h64v480c0,17.7,14.3,32,32,32
	s32-14.3,32-32l0.4-480H352v480c0,17.7,14.3,32,32,32s32-14.3,32-32l0.4-480h64L480,800c0,17.7,14.3,32,32,32s32-14.3,32-32V320h64
	V864z M672,240c0,8.8-7.2,16-16,16H112c-8.8,0-16-7.2-16-16v-32c0-8.8,7.2-16,16-16h544c8.8,0,16,7.2,16,16V240z"/>
</svg>
